<svg t="1597836213345" class="icon" viewBox="0 0 1303 1024" version="1.1" xmlns="http://www.w3.org/2000/svg" p-id="4701" width="32" height="32"><path d="M442.119758 326.811152a38.787879 38.787879 0 0 1 42.604606 64.698181l-3.537455 2.327273L264.688485 520.067879l7.881697 6.640485c16.446061 14.273939 32.768 29.416727 48.593454 45.304242l15.639273 16.135758c70.62497 74.814061 115.805091 150.341818 122.197333 225.28a188.974545 188.974545 0 0 1-17.873454 99.545212 38.787879 38.787879 0 0 1-6.516364 9.619394c-10.426182 11.170909-28.113455 26.717091-51.975757 42.201212-92.935758 60.198788-196.63903 63.550061-290.040243-28.64097a404.262788 404.262788 0 0 1-50.082909-61.005576c-64.108606-94.487273 5.15103-253.145212 112.081455-232.261818 57.095758 11.201939 96.566303 46.855758 118.628848 100.662303l3.351273 8.781576 11.264-7.292121a38.787879 38.787879 0 0 1 51.2 7.881697l2.482424 3.413333a38.787879 38.787879 0 0 1-7.881697 51.2l-3.413333 2.482424L273.190788 847.127273a38.787879 38.787879 0 0 1-59.578182-26.996364c-8.688485-60.633212-32.73697-93.090909-73.945212-101.158788-29.602909-5.802667-62.370909 69.259636-32.985212 112.57794 13.218909 19.456 26.686061 35.87103 40.339394 49.338181 63.922424 63.084606 128.155152 61.005576 193.411879 18.711273 10.488242-6.795636 19.983515-14.087758 28.237575-21.348848l4.964849-4.561455 0.682666-1.427394c5.647515-14.087758 8.192-28.858182 7.819637-44.435394l-0.434424-7.850666c-4.561455-53.434182-41.673697-115.432727-101.34497-178.672485a833.660121 833.660121 0 0 0-73.821091-68.887273l-12.691394-10.333091c-4.033939-3.227152-7.912727-6.206061-11.543273-8.998788l-8.657454-6.454303a38.787879 38.787879 0 0 1-0.651637-62.681212l3.661576-2.420364 265.464243-154.748121z" p-id="4702"></path><path d="M1077.434182 20.417939c26.375758 3.599515 52.627394 10.302061 77.575757 21.038546 65.039515 28.020364 110.250667 78.723879 123.190303 154.034424l1.055031 6.702546 1.458424 6.857697 1.582545 8.843636c4.530424 28.206545 5.08897 57.933576-1.148121 86.884848-6.144 28.609939-18.618182 53.868606-38.663757 73.976243l-2.575516 2.389333-2.792727 2.141091-854.698666 591.561697a38.787879 38.787879 0 0 1-47.507394-61.222788l3.351272-2.575515L719.90303 646.857697l2.079031-2.730667c7.881697-9.402182 13.839515-21.007515 17.997575-34.629818l1.861819-6.950788c5.895758-23.738182 6.206061-50.20703 3.040969-74.658909l-1.396363-9.309091a331.80703 331.80703 0 0 0-0.806788-4.375272c-8.036848-59.516121-41.270303-97.062788-94.549334-119.466667a274.432 274.432 0 0 0-97.683394-20.790303h-6.516363l-3.940849-0.093091c-35.995152-2.389333-49.089939-49.710545-19.549091-70.283636l3.475394-2.172122L1017.111273 22.621091a38.787879 38.787879 0 0 1 13.218909-4.592485l5.833697-0.434424c10.27103-0.155152 24.451879 0.527515 41.270303 2.823757zM1046.217697 95.26303l-389.213091 220.004849 8.874667 3.10303 12.31903 4.840727c76.955152 32.395636 129.334303 91.570424 140.846545 177.617455l1.024 5.399273a316.38497 316.38497 0 0 1 4.344243 57.095757l-0.403394 11.481212 365.443879-252.95903 1.644606-1.799758c5.647515-6.826667 9.836606-15.32897 12.691394-25.382787l1.551515-6.206061c3.878788-18.152727 3.506424-38.756848 0.372364-58.243879l-1.458425-7.912727-0.651636-2.885818-0.930909-4.747637c-6.919758-51.2-34.350545-83.006061-78.351515-101.965575a223.480242 223.480242 0 0 0-73.541818-17.252849l-4.561455-0.186182z" p-id="4703"></path><path d="M734.797576 223.511273a304.903758 304.903758 0 0 1 83.99903 24.327757c67.490909 31.092364 114.71903 86.233212 130.110061 167.563637l1.303272 7.726545 1.644606 8.098909 1.458425 8.998788c5.057939 35.157333 4.654545 72.828121-5.275152 109.319758a185.37503 185.37503 0 0 1-29.292606 61.750303 38.787879 38.787879 0 1 1-62.464-45.986909c7.571394-10.24 13.156848-22.372848 16.880485-36.119273 6.733576-24.762182 7.043879-52.348121 3.351273-77.886061l-1.365334-8.285091-1.241212-6.268121c-9.216-59.42303-40.029091-96.535273-87.598545-118.473697a229.096727 229.096727 0 0 0-88.715637-20.48h-6.516363a38.787879 38.787879 0 0 1-6.764606-77.172363l5.337212-0.372364c11.326061-0.217212 26.841212 0.620606 45.149091 3.258182z" p-id="4704"></path><path d="M859.229091 579.521939a38.787879 38.787879 0 0 1 15.670303 52.565334l-4.158061 7.819636a2457.786182 2457.786182 0 0 0-45.180121 89.367273l-5.585454 11.760485-5.306182 11.450181c-21.566061 46.824727-34.909091 82.97503-35.498667 95.076849-1.520485 30.099394 20.045576 55.047758 47.290182 56.506182 27.089455 1.489455 50.858667-20.852364 52.348121-50.641455 0.248242-5.647515-2.296242-20.076606-7.509333-39.532606a38.787879 38.787879 0 0 1 74.938182-20.107636c7.168 26.748121 10.798545 47.321212 10.053818 63.394909-3.630545 72.114424-63.301818 128.186182-134.050909 124.369454-70.593939-3.847758-124.152242-65.815273-120.552728-137.805575 1.241212-26.127515 16.259879-66.653091 42.511516-123.686788 3.599515-7.881697 7.447273-15.980606 11.388121-24.296727 7.447273-15.546182 15.235879-31.340606 23.148606-46.948849l16.011636-31.092364 11.915637-22.528a38.787879 38.787879 0 0 1 52.565333-15.670303z" p-id="4705"></path><path d="M990.301091 578.311758c-18.307879 1.458424-37.546667 3.351273-57.406061 5.523394-11.791515 1.303273-23.334788 2.668606-34.443636 4.033939l-37.019152 4.902788c-31.71297 4.561455-44.528485 43.411394-21.783272 65.939394l19.145697 18.618182 6.671515 6.392242c19.549091 18.618182 39.718788 37.298424 59.392 54.768485l9.060848 8.005818 8.874667 7.695515c43.969939 37.85697 76.117333 61.315879 99.700364 69.104485a127.286303 127.286303 0 0 0 160.768-81.051152 127.348364 127.348364 0 0 0-80.989091-160.86109c-23.489939-7.757576-63.425939-8.16097-120.987152-3.909819l-10.984727 0.837819z m107.644121 76.706909a49.772606 49.772606 0 0 1-31.123394 94.642424c-9.960727-3.320242-38.074182-23.831273-73.417697-54.24097a1485.606788 1485.606788 0 0 1-17.066666-14.925576l-19.052607-17.159757-3.940848-3.661576 16.228848-1.644606c4.592485-0.434424 9.153939-0.868848 13.653334-1.241212l13.28097-1.148121c48.686545-3.909818 86.140121-4.189091 99.35903-1.179152l2.07903 0.558546zM265.091879 554.635636a38.787879 38.787879 0 0 1 42.04606 65.070546l-3.568484 2.265212L126.293333 723.316364a38.787879 38.787879 0 0 1-42.04606-65.070546l3.568485-2.296242 177.307151-101.31394z" p-id="4706"></path></svg>