<svg t="1597835964649" class="icon" viewBox="0 0 1024 1024" version="1.1" xmlns="http://www.w3.org/2000/svg" p-id="3491" width="32" height="32"><path d="M554.7 746.7c-11.8 0-21.3 9.6-21.3 21.3v170.7c0 11.8 9.6 21.3 21.3 21.3s21.3-9.6 21.3-21.3V768c0-11.8-9.6-21.3-21.3-21.3zM668.4 704c-11.8 0-21.3 9.6-21.3 21.3v213.3c0 11.8 9.6 21.3 21.3 21.3 11.8 0 21.3-9.6 21.3-21.3V725.3c0.1-11.7-9.5-21.3-21.3-21.3zM538.7 65.5c-141.6-15.6-261.4 94.8-261.4 233.2 0 90 50.7 168 125 207.4C231.9 553.9 106.7 710.2 106.7 896c0 15.5 1.1 30.7 2.9 45.7 1.3 10.5 10.5 18.3 21.1 18.3 12.5 0 22.6-10.8 21.1-23.3-1.6-13.4-2.5-26.9-2.5-40.7 0-200.3 162.4-362.7 362.7-362.7 138.4 0 248.8-119.8 233.2-261.4-11.9-107.3-99.1-194.6-206.5-206.4zM479.5 488c-79.6-13.1-143.8-77.2-156.8-156.8-21.6-131.4 90.4-243.4 221.8-221.8 79.6 13.1 143.8 77.2 156.8 156.8 21.6 131.3-90.4 243.4-221.8 221.8zM896 661.3c-11.8 0-21.3 9.6-21.3 21.3v256c0 11.8 9.6 21.3 21.3 21.3 11.8 0 21.3-9.6 21.3-21.3v-256c0-11.7-9.5-21.3-21.3-21.3zM782.2 576c-11.8 0-21.3 9.6-21.3 21.3v341.3c0 11.8 9.6 21.3 21.3 21.3 11.8 0 21.3-9.6 21.3-21.3V597.3c0.1-11.7-9.5-21.3-21.3-21.3z" p-id="3492"></path></svg>